/* XPM */
static char * fav_test_xpm[] = {
"16 16 75 1",
" 	c None",
".	c #6969C0",
"+	c #6E6EC2",
"@	c #7171C3",
"#	c #BCBCE3",
"$	c #7B7BC7",
"%	c #BDBDE3",
"&	c #7272C3",
"*	c #BEBEE4",
"=	c #7575C5",
"-	c #8C8CCF",
";	c #9E9ED6",
">	c #7F7FC9",
",	c #CACAE8",
"'	c #9292D1",
")	c #C5C5E7",
"!	c #6B6BC1",
"~	c #A5A5D9",
"{	c #B7B7E0",
"]	c #B4B4DF",
"^	c #7E7EC8",
"/	c #8484CB",
"(	c #CDCDEA",
"_	c #C8C8E8",
":	c #F5F5FB",
"<	c #C4C4E6",
"[	c #6A6AC0",
"}	c #8E8ECF",
"|	c #ECECF7",
"1	c #6D6DC1",
"2	c #E4E4F3",
"3	c #FFFFFF",
"4	c #DADAEF",
"5	c #7D7DC8",
"6	c #B0B0DD",
"7	c #9090D0",
"8	c #EFEFF8",
"9	c #F3F3FA",
"0	c #7373C4",
"a	c #DCDCF0",
"b	c #F4F4FA",
"c	c #EEEEF8",
"d	c #7474C4",
"e	c #E2E2F3",
"f	c #D5D5ED",
"g	c #9393D1",
"h	c #E5E5F4",
"i	c #D4D4ED",
"j	c #DBDBF0",
"k	c #C0C0E4",
"l	c #9999D4",
"m	c #A9A9DB",
"n	c #9B9BD5",
"o	c #EDEDF7",
"p	c #9A9AD4",
"q	c #E9E9F6",
"r	c #A6A6D9",
"s	c #D2D2EC",
"t	c #D3D3EC",
"u	c #FDFDFE",
"v	c #DFDFF1",
"w	c #6C6CC1",
"x	c #ACACDC",
"y	c #E6E6F4",
"z	c #C3C3E5",
"A	c #FCFCFD",
"B	c #AAAADB",
"C	c #8989CD",
"D	c #9393D2",
"E	c #7E7EC9",
"F	c #9F9FD6",
"G	c #EBEBF6",
"H	c #8B8BCE",
"I	c #6F6FC2",
"J	c #9494D2",
" .+.......@#... ",
" $........%&....",
"$%*=.....-;.....",
"..>,'....)!.....",
"....~{!.$]...^..",
"...../(_:<[.}|..",
".....12333~.43$.",
".....533336783=.",
".../..%3390a_b..",
"...c]d.#efghij..",
"...hb|klmnopqr..",
"...~3stuvwxwy+..",
"....zABCD..E]...",
".....FGH...5=...",
"......IJ...[....",
" .............. "};
